
<!-- Generator: visioncortex VTracer 0.6.4 -->
<svg version="1.1" xmlns="http://www.w3.org/2000/svg" viewBox="0 0 500 500" preserveAspectRatio="xMidYMid meet">
<path d="M0 0 C165 0 330 0 500 0 C500 165 500 330 500 500 C335 500 170 500 0 500 C0 335 0 170 0 0 Z " fill="#1A1A1A" transform="translate(0,0)"/>
<path d="M0 0 C0.994 0.654 1.988 1.307 3.012 1.98 C17.999 12.552 30.61 26.293 40 42 C40.602 42.997 40.602 42.997 41.217 44.013 C47.966 55.381 52.43 67.297 56 80 C56.226 80.792 56.452 81.584 56.685 82.399 C66.014 116.55 59.316 152.756 42.25 183.199 C39.209 188.434 35.781 193.275 32 198 C30.792 199.529 30.792 199.529 29.559 201.09 C24.81 207.004 19.891 212.23 14 217 C13.227 217.683 12.453 218.366 11.656 219.07 C-15.674 242.696 -52.416 252.288 -88 250 C-124.34 246.105 -157.024 228.346 -180.451 200.26 C-190.359 187.674 -204 168.557 -204 152 C-200.92 150.991 -197.835 149.994 -194.75 149 C-193.877 148.714 -193.005 148.428 -192.105 148.133 C-191.261 147.862 -190.417 147.591 -189.547 147.312 C-188.772 147.061 -187.997 146.81 -187.198 146.551 C-185 146 -185 146 -181 146 C-181.217 145.181 -181.433 144.363 -181.656 143.52 C-185.619 126.111 -188.291 100.581 -180 84 C-181.124 83.888 -182.248 83.776 -183.406 83.66 C-188.249 83.055 -192.822 81.798 -197.5 80.438 C-198.734 80.087 -198.734 80.087 -199.992 79.729 C-201.996 79.158 -203.998 78.58 -206 78 C-201.753 58.525 -192.843 41.155 -180 26 C-179.344 25.225 -179.344 25.225 -178.675 24.434 C-155.856 -2.198 -123.263 -18.931 -88.438 -22.688 C-57.122 -24.901 -26.247 -17.327 0 0 Z " fill="#129A01" transform="translate(322,138)"/>
<path d="M0 0 C15.125 -0.736 30.883 3.761 44.426 10.191 C45.532 10.716 46.638 11.241 47.777 11.781 C71.68 23.904 89.141 43.677 99.426 68.191 C99.818 69.098 100.21 70.004 100.613 70.938 C101.426 73.191 101.426 73.191 101.426 76.191 C94.166 76.191 86.906 76.191 79.426 76.191 C78.085 73.737 76.745 71.283 75.363 68.754 C71.854 62.465 68.241 56.584 63.426 51.191 C62.774 50.458 62.121 49.724 61.449 48.969 C47.177 33.84 27.495 23.572 6.559 22.758 C4.223 22.734 1.887 22.733 -0.449 22.754 C-1.679 22.763 -2.908 22.772 -4.175 22.781 C-23.572 23.151 -41.218 29.985 -55.574 43.191 C-56.403 43.929 -57.232 44.666 -58.086 45.426 C-73.311 59.694 -82.922 79.407 -83.855 100.285 C-84.475 124.027 -78.398 146.399 -61.757 163.964 C-60.375 165.385 -58.975 166.789 -57.574 168.191 C-56.478 169.305 -56.478 169.305 -55.359 170.441 C-39.085 185.958 -18.137 191.07 3.804 190.768 C12.526 190.461 20.221 189.302 28.426 186.191 C29.439 185.841 30.452 185.49 31.496 185.129 C57.367 175.402 70.856 156.777 82.426 132.191 C55.036 132.191 27.646 132.191 -0.574 132.191 C-0.574 126.251 -0.574 120.311 -0.574 114.191 C34.736 114.191 70.046 114.191 106.426 114.191 C102.703 137.769 97.146 157.235 81.426 175.191 C80.874 175.875 80.322 176.558 79.754 177.262 C63.846 196.579 38.373 209.162 13.692 212.006 C-15.449 214.389 -43.59 209.004 -66.324 189.816 C-68.439 187.975 -70.515 186.095 -72.574 184.191 C-73.955 182.917 -73.955 182.917 -75.363 181.617 C-94.816 162.899 -105.296 136.73 -105.862 109.938 C-106.094 81.524 -97.964 55.468 -78.028 34.638 C-76.556 33.143 -75.068 31.665 -73.574 30.191 C-72.375 28.977 -72.375 28.977 -71.152 27.738 C-51.193 8.583 -26.754 1.989 0 0 Z " fill="#1B1B1B" transform="translate(245.57421875,146.80859375)"/>
<path d="M0 0 C12.481 12.951 18.522 28.927 18.203 46.891 C18 49 18 49 17 51 C-3.13 51 -23.26 51 -44 51 C-44 58.26 -44 65.52 -44 73 C-25.85 73 -7.7 73 11 73 C3.231 86.596 -7.888 96.073 -22.988 100.969 C-39.052 105.205 -54.422 103.568 -69.051 95.785 C-81.958 87.973 -90.801 77.172 -96 63 C-96 62.34 -96 61.68 -96 61 C-96.632 61.254 -97.263 61.508 -97.914 61.77 C-105.474 64.678 -113.055 66.469 -121 68 C-125.77 52.736 -124.985 36.365 -121 21 C-112.917 22.702 -104.969 24.837 -97 27 C-96.649 25.762 -96.299 24.525 -95.938 23.25 C-90.548 7.308 -79.836 -3.48 -65 -11 C-42.665 -19.862 -18.003 -16.503 0 0 Z " fill="#9A0101" transform="translate(287,208)"/>
<path d="M0 0 C0.904 0.004 1.807 0.008 2.738 0.013 C33.133 0.513 59.421 13.3 81 34.312 C81.566 34.845 82.133 35.378 82.716 35.927 C87.005 40.047 90.382 44.358 93.562 49.375 C94.034 50.112 94.505 50.85 94.99 51.609 C100.923 61.117 104.553 70.301 107 81.312 C98.09 81.312 89.18 81.312 80 81.312 C78.35 77.353 76.7 73.392 75 69.312 C64.447 49.526 46.423 36.956 25.816 29.371 C4.564 23.476 -19.241 26.678 -38.41 37.18 C-43.393 40.06 -47.77 43.413 -52 47.312 C-52.852 48.085 -53.704 48.857 -54.582 49.652 C-60.523 55.29 -64.993 61.183 -69 68.312 C-69.461 69.125 -69.923 69.937 -70.398 70.773 C-80.645 89.962 -80.362 110.418 -77 131.312 C-76.314 131.1 -75.627 130.888 -74.92 130.67 C-71.823 129.715 -68.724 128.763 -65.625 127.812 C-64.545 127.479 -63.465 127.145 -62.352 126.801 C-61.32 126.485 -60.289 126.169 -59.227 125.844 C-58.273 125.55 -57.32 125.257 -56.338 124.955 C-54 124.312 -54 124.312 -52 124.312 C-51.515 125.351 -51.031 126.39 -50.531 127.461 C-42.64 144.042 -33.082 155.881 -15.5 162.312 C-0.166 167.377 15.6 166.489 30.25 159.562 C39.946 154.357 48.962 147.389 54 137.312 C36.18 136.982 18.36 136.653 0 136.312 C0 129.053 0 121.793 0 114.312 C36.63 114.312 73.26 114.312 111 114.312 C108.992 138.404 102.087 158.407 87 177.312 C86.292 178.205 85.585 179.097 84.855 180.016 C71.825 195.391 53.922 205.894 35 212.312 C34.136 212.644 33.273 212.975 32.383 213.316 C22.162 216.326 11.834 216.72 1.25 216.688 C0.543 216.687 -0.164 216.686 -0.893 216.685 C-11.441 216.642 -21.052 216.132 -31 212.312 C-31.653 212.066 -32.305 211.819 -32.978 211.565 C-63.32 199.877 -84.71 178.6 -98 149.312 C-98.286 148.684 -98.573 148.055 -98.867 147.408 C-100.678 143.325 -101.447 139.739 -102 135.312 C-102.645 132.973 -103.311 130.639 -104 128.312 C-107.554 113.336 -106.443 94.013 -102 79.312 C-101.524 77.646 -101.524 77.646 -101.039 75.945 C-96.364 61.323 -88.411 47.571 -78 36.312 C-77.267 35.488 -76.533 34.662 -75.777 33.812 C-57 13.75 -27.624 -0.179 0 0 Z M-3.184 2.406 C-32.421 3.734 -57.906 17.339 -77.634 38.751 C-97.721 61.71 -104.968 90.358 -103 120.312 C-102.418 125.752 -101.324 131.004 -100 136.312 C-99.807 137.171 -99.613 138.03 -99.414 138.914 C-93.107 163.407 -75.983 184.724 -55 198.312 C-54.08 198.916 -53.159 199.519 -52.211 200.141 C-28.877 214.607 -0.135 218.245 26.527 212.207 C27.673 211.912 28.819 211.617 30 211.312 C31.053 211.069 32.106 210.825 33.191 210.574 C48.028 206.656 61.711 198.572 73 188.312 C74.015 187.508 74.015 187.508 75.051 186.688 C96.852 169.212 104.828 142.738 109 116.312 C73.69 116.312 38.38 116.312 2 116.312 C2 122.252 2 128.192 2 134.312 C29.39 134.312 56.78 134.312 85 134.312 C73.137 159.356 60.371 177.191 34.105 187.215 C33.081 187.577 32.056 187.939 31 188.312 C29.965 188.706 28.93 189.099 27.863 189.504 C7.178 196.273 -16.47 193.639 -35.984 184.52 C-44.517 180.182 -51.337 174.062 -58 167.312 C-58.752 166.56 -59.503 165.807 -60.277 165.031 C-76.388 147.962 -81.898 125.259 -81.273 102.391 C-80.24 79.443 -69.32 60.699 -53.016 44.918 C-37.303 31.342 -18.747 24.733 1.938 24.938 C3.11 24.926 4.282 24.914 5.49 24.902 C16.771 24.94 27.328 26.908 37.5 31.875 C38.214 32.219 38.927 32.562 39.662 32.917 C59.728 42.973 71.317 59.083 82 78.312 C89.26 78.312 96.52 78.312 104 78.312 C100.463 60.629 89.504 45.817 77 33.312 C76.113 32.426 75.226 31.539 74.312 30.625 C56.345 13.493 30.334 2.358 5.312 2.062 C2.479 2.165 -0.349 2.323 -3.184 2.406 Z " fill="#129B01" transform="translate(243,144.6875)"/>
<path d="M0 0 C0.904 0.004 1.807 0.008 2.738 0.013 C33.133 0.513 59.421 13.3 81 34.312 C81.566 34.845 82.133 35.378 82.716 35.927 C87.005 40.047 90.382 44.358 93.562 49.375 C94.034 50.112 94.505 50.85 94.99 51.609 C100.923 61.117 104.553 70.301 107 81.312 C98.09 81.312 89.18 81.312 80 81.312 C78.35 77.353 76.7 73.392 75 69.312 C64.447 49.526 46.423 36.956 25.816 29.371 C4.564 23.476 -19.241 26.678 -38.41 37.18 C-43.393 40.06 -47.77 43.413 -52 47.312 C-52.852 48.085 -53.704 48.857 -54.582 49.652 C-60.523 55.29 -64.993 61.183 -69 68.312 C-69.461 69.125 -69.923 69.937 -70.398 70.773 C-80.453 89.603 -81.529 111.497 -76.035 131.895 C-69.393 153.609 -56.051 170.985 -35.918 181.775 C-28.851 185.365 -21.85 187.961 -14 189.312 C-12.953 189.494 -11.907 189.676 -10.828 189.863 C1.638 191.326 15.095 191.589 27 187.312 C28.062 186.949 29.124 186.585 30.219 186.211 C56.499 176.694 69.504 161.304 82 136.312 C54.94 136.312 27.88 136.312 0 136.312 C0 129.053 0 121.793 0 114.312 C36.63 114.312 73.26 114.312 111 114.312 C108.992 138.404 102.087 158.407 87 177.312 C86.292 178.205 85.585 179.097 84.855 180.016 C71.825 195.391 53.922 205.894 35 212.312 C34.136 212.644 33.273 212.975 32.383 213.316 C22.162 216.326 11.834 216.72 1.25 216.688 C0.543 216.687 -0.164 216.686 -0.893 216.685 C-11.441 216.642 -21.052 216.132 -31 212.312 C-31.653 212.066 -32.305 211.819 -32.978 211.565 C-63.32 199.877 -84.71 178.6 -98 149.312 C-98.286 148.684 -98.573 148.055 -98.867 147.408 C-100.678 143.325 -101.447 139.739 -102 135.312 C-102.645 132.973 -103.311 130.639 -104 128.312 C-107.554 113.336 -106.443 94.013 -102 79.312 C-101.524 77.646 -101.524 77.646 -101.039 75.945 C-96.364 61.323 -88.411 47.571 -78 36.312 C-77.267 35.488 -76.533 34.662 -75.777 33.812 C-57 13.75 -27.624 -0.179 0 0 Z M-3.184 2.406 C-32.421 3.734 -57.906 17.339 -77.634 38.751 C-97.721 61.71 -104.968 90.358 -103 120.312 C-102.418 125.752 -101.324 131.004 -100 136.312 C-99.807 137.171 -99.613 138.03 -99.414 138.914 C-93.107 163.407 -75.983 184.724 -55 198.312 C-54.08 198.916 -53.159 199.519 -52.211 200.141 C-28.877 214.607 -0.135 218.245 26.527 212.207 C27.673 211.912 28.819 211.617 30 211.312 C31.053 211.069 32.106 210.825 33.191 210.574 C48.028 206.656 61.711 198.572 73 188.312 C74.015 187.508 74.015 187.508 75.051 186.688 C96.852 169.212 104.828 142.738 109 116.312 C73.69 116.312 38.38 116.312 2 116.312 C2 122.252 2 128.192 2 134.312 C29.39 134.312 56.78 134.312 85 134.312 C73.137 159.356 60.371 177.191 34.105 187.215 C33.081 187.577 32.056 187.939 31 188.312 C29.965 188.706 28.93 189.099 27.863 189.504 C7.178 196.273 -16.47 193.639 -35.984 184.52 C-44.517 180.182 -51.337 174.062 -58 167.312 C-58.752 166.56 -59.503 165.807 -60.277 165.031 C-76.388 147.962 -81.898 125.259 -81.273 102.391 C-80.24 79.443 -69.32 60.699 -53.016 44.918 C-37.303 31.342 -18.747 24.733 1.938 24.938 C3.11 24.926 4.282 24.914 5.49 24.902 C16.771 24.94 27.328 26.908 37.5 31.875 C38.214 32.219 38.927 32.562 39.662 32.917 C59.728 42.973 71.317 59.083 82 78.312 C89.26 78.312 96.52 78.312 104 78.312 C100.463 60.629 89.504 45.817 77 33.312 C76.113 32.426 75.226 31.539 74.312 30.625 C56.345 13.493 30.334 2.358 5.312 2.062 C2.479 2.165 -0.349 2.323 -3.184 2.406 Z " fill="#E9EBE9" transform="translate(243,144.6875)"/>
<path d="M0 0 C0.904 0.004 1.807 0.008 2.738 0.013 C33.133 0.513 59.421 13.3 81 34.312 C81.566 34.845 82.133 35.378 82.716 35.927 C87.005 40.047 90.382 44.358 93.562 49.375 C94.034 50.112 94.505 50.85 94.99 51.609 C100.923 61.117 104.553 70.301 107 81.312 C98.09 81.312 89.18 81.312 80 81.312 C78.35 77.353 76.7 73.392 75 69.312 C64.447 49.526 46.423 36.956 25.816 29.371 C4.158 23.364 -19.369 27.07 -39 37.312 C-38.895 35.504 -38.895 35.504 -38 33.312 C-35.262 31.715 -35.262 31.715 -31.688 30.25 C-30.536 29.764 -29.385 29.278 -28.199 28.777 C-18.143 25.093 -8.749 23.832 1.938 23.938 C3.11 23.926 4.282 23.914 5.49 23.902 C16.771 23.94 27.329 25.908 37.5 30.875 C38.214 31.219 38.929 31.564 39.665 31.919 C59.472 41.854 72.248 57.809 82 77.312 C92.89 77.808 92.89 77.808 104 78.312 C96.977 60.691 89.433 46.746 76 33.312 C75.187 32.499 74.373 31.686 73.535 30.848 C55.86 14.09 29.805 3.351 5.312 3.062 C3.541 3.126 1.77 3.211 0 3.312 C-1.051 3.343 -2.101 3.374 -3.184 3.406 C-31.439 4.689 -55.852 17.358 -75.484 37.484 C-95.635 60.138 -103.39 87.743 -102.177 117.615 C-101.758 124.002 -100.548 130.105 -99 136.312 C-98.807 137.171 -98.613 138.03 -98.414 138.914 C-92.196 163.06 -75.637 183.847 -55 197.312 C-54.102 197.905 -53.203 198.498 -52.277 199.109 C-43.693 204.447 -34.453 207.857 -25 211.312 C-25 211.972 -25 212.632 -25 213.312 C-29.886 212.716 -34.095 211.238 -38.562 209.25 C-39.26 208.941 -39.957 208.633 -40.676 208.314 C-67.6 196.077 -85.953 175.86 -98 149.312 C-98.286 148.684 -98.573 148.055 -98.867 147.408 C-100.678 143.325 -101.447 139.739 -102 135.312 C-102.645 132.973 -103.311 130.639 -104 128.312 C-107.554 113.336 -106.443 94.013 -102 79.312 C-101.524 77.646 -101.524 77.646 -101.039 75.945 C-96.364 61.323 -88.411 47.571 -78 36.312 C-77.267 35.488 -76.533 34.662 -75.777 33.812 C-57 13.75 -27.624 -0.179 0 0 Z " fill="#E5EDE4" transform="translate(243,144.6875)"/>
<path d="M0 0 C-1.258 3.773 -2.606 4.315 -5.875 6.5 C-16.046 13.726 -23.934 22.094 -30 33 C-30.69 34.216 -30.69 34.216 -31.395 35.457 C-41.459 54.279 -42.528 76.189 -37.035 96.582 C-30.393 118.297 -17.051 135.672 3.082 146.462 C16.039 153.045 29.025 154.99 43.438 155.562 C44.455 155.606 45.473 155.649 46.521 155.693 C49.014 155.799 51.507 155.901 54 156 C44.639 161.301 29.63 158.759 19.66 156.257 C4.114 151.832 -7.683 144.462 -19 133 C-19.825 132.174 -20.65 131.347 -21.5 130.496 C-37.284 113.886 -43.578 92.274 -43.347 69.769 C-42.671 45.012 -31.607 25.563 -13.945 8.648 C-4.327 0 -4.327 0 0 0 Z " fill="#E2E6E1" transform="translate(204,180)"/>
<path d="M0 0 C1.172 -0.012 2.345 -0.023 3.553 -0.035 C14.834 0.002 25.391 1.97 35.562 6.938 C36.277 7.282 36.991 7.626 37.727 7.981 C57.535 17.916 70.311 33.872 80.062 53.375 C90.952 53.87 90.952 53.87 102.062 54.375 C101.732 52.725 101.403 51.075 101.062 49.375 C104.28 52.033 104.145 52.787 105.062 57.375 C96.153 57.375 87.243 57.375 78.062 57.375 C76.413 53.415 74.762 49.455 73.062 45.375 C62.51 25.588 44.486 13.019 23.879 5.434 C2.221 -0.574 -21.307 3.133 -40.938 13.375 C-40.832 11.566 -40.832 11.566 -39.938 9.375 C-37.199 7.777 -37.199 7.777 -33.625 6.312 C-32.474 5.827 -31.323 5.341 -30.137 4.84 C-20.081 1.155 -10.687 -0.105 0 0 Z " fill="#DAEAD8" transform="translate(244.9375,168.625)"/>
<path d="M0 0 C27.39 0 54.78 0 83 0 C75.513 22.461 61.815 38.7 41 50 C31.666 54.618 19.569 59.542 9 59 C10.98 58.505 10.98 58.505 13 58 C13 57.34 13 56.68 13 56 C13.715 55.841 14.431 55.683 15.168 55.52 C38.67 50.016 58.966 38.736 72 18 C75.121 12.567 78.016 6.951 80 1 C53.6 1 27.2 1 0 1 C0 0.67 0 0.34 0 0 Z " fill="#D0D3CE" transform="translate(245,279)"/>
<path d="M0 0 C3.791 2.527 4.899 5.565 6.75 9.562 C10.933 18.257 15.891 25.399 23 32 C23.646 32.616 24.292 33.232 24.957 33.867 C44.194 51.723 66.872 54.371 92 55 C82.639 60.301 67.63 57.759 57.66 55.257 C42.114 50.832 30.317 43.462 19 32 C18.175 31.174 17.35 30.347 16.5 29.496 C9.592 22.227 0 10.578 0 0 Z " fill="#ECEDEB" transform="translate(166,281)"/>
<path d="M0 0 C19.58 0.35 39.189 15.205 52.483 28.49 C53.551 29.553 54.635 30.601 55.73 31.637 C60.014 35.751 63.385 40.051 66.562 45.062 C67.031 45.795 67.5 46.527 67.983 47.281 C72.067 53.814 75.702 60.619 78 68 C77.67 68.66 77.34 69.32 77 70 C73.921 68.46 73.669 65.974 72.438 62.812 C67.019 49.651 59.015 39.015 49 29 C48.187 28.187 47.373 27.373 46.535 26.535 C34.383 15.013 19.202 7.615 3.266 2.859 C1 2 1 2 0 0 Z " fill="#EAEDEA" transform="translate(270,149)"/>
<path d="M0 0 C2.516 1.258 2.666 2.128 3.734 4.684 C4.058 5.442 4.381 6.2 4.715 6.98 C5.056 7.791 5.398 8.602 5.75 9.438 C17.233 35.887 37.206 56.29 64.258 66.978 C67.827 68.352 71.408 69.687 75 71 C75 71.66 75 72.32 75 73 C70.114 72.403 65.905 70.925 61.438 68.938 C60.74 68.629 60.043 68.32 59.324 68.002 C32.874 55.98 13.324 35.583 2 9 C1.049 5.943 0.453 3.174 0 0 Z " fill="#E9ECE8" transform="translate(143,285)"/>
<path d="M0 0 C0.99 0.495 0.99 0.495 2 1 C-6.502 10.914 -25.558 14.564 -38 16 C-42.699 16.234 -47.379 16.289 -52.083 16.261 C-54.195 16.25 -56.307 16.261 -58.42 16.273 C-65.498 16.282 -72.228 16.22 -79 14 C-79.33 13.01 -79.66 12.02 -80 11 C-79.279 11.144 -78.559 11.289 -77.816 11.438 C-60.448 14.44 -42.098 14.446 -25 10 C-23.866 9.71 -22.731 9.42 -21.562 9.121 C-14.707 7.189 -8.609 4.491 -2.363 1.074 C-1.583 0.72 -0.804 0.365 0 0 Z " fill="#E4E6E4" transform="translate(298,345)"/>
<path d="M0 0 C0.33 0.66 0.66 1.32 1 2 C0.316 4.044 -0.45 6.061 -1.25 8.062 C-8.899 28.583 -9.019 50.83 -4 72 C-3.66 73.665 -3.324 75.332 -3 77 C-4.485 77.495 -4.485 77.495 -6 78 C-6.124 76.989 -6.248 75.979 -6.375 74.938 C-6.975 71.156 -7.914 67.666 -9 64 C-13.763 43.93 -10.406 19.699 -2 1 C-1.34 0.67 -0.68 0.34 0 0 Z " fill="#E4E6E3" transform="translate(148,209)"/>
<path d="M0 0 C0.895 0.001 1.79 0.003 2.712 0.004 C11.655 0.13 20.257 1.519 29 3.312 C27 5.312 27 5.312 24.574 5.324 C23.145 5.164 23.145 5.164 21.688 5 C20.27 4.851 20.27 4.851 18.824 4.699 C17.024 4.453 15.231 4.151 13.453 3.777 C1.659 1.542 -12.084 3.43 -23.477 6.691 C-26 7.312 -26 7.312 -30 7.312 C-30 6.653 -30 5.993 -30 5.312 C-28.544 4.848 -27.085 4.391 -25.625 3.938 C-24.813 3.682 -24.001 3.427 -23.164 3.164 C-15.408 1.077 -8.037 -0.049 0 0 Z " fill="#C8DEC6" transform="translate(243,144.6875)"/>
<path d="M0 0 C-1.258 3.773 -2.606 4.315 -5.875 6.5 C-19.255 16.005 -27.304 27.504 -34.738 41.883 C-36 44 -36 44 -38 45 C-32.987 27.306 -19.695 11.321 -4.336 1.254 C-2 0 -2 0 0 0 Z " fill="#E6EDE5" transform="translate(204,180)"/>
<path d="M0 0 C3.258 1.9 6.294 3.93 9.312 6.188 C19.218 13.165 30.492 18.294 42 22 C42 22.66 42 23.32 42 24 C37.114 23.403 32.905 21.925 28.438 19.938 C27.741 19.629 27.044 19.321 26.326 19.004 C16.483 14.534 7.45 8.74 -1 2 C-0.67 1.34 -0.34 0.68 0 0 Z " fill="#E4EFE2" transform="translate(176,334)"/>
<path d="M0 0 C4.679 0.891 9.26 2.078 13.867 3.281 C21.024 4.923 28.128 5.272 35.438 5.562 C36.964 5.627 36.964 5.627 38.521 5.693 C41.014 5.799 43.507 5.901 46 6 C41.369 8.639 37.099 8.424 31.875 8.438 C30.419 8.442 30.419 8.442 28.935 8.447 C19.093 8.287 8.887 6.443 0 2 C0 1.34 0 0.68 0 0 Z " fill="#EBF1EA" transform="translate(212,330)"/>
<path d="M0 0 C3.217 2.658 3.082 3.412 4 8 C-4.91 8 -13.82 8 -23 8 C-23 7.01 -23 6.02 -23 5 C-15.08 5 -7.16 5 1 5 C0.67 3.35 0.34 1.7 0 0 Z " fill="#C8DFC4" transform="translate(346,218)"/>
<path d="M0 0 C0.66 0 1.32 0 2 0 C1.826 7.764 0.454 14.932 -1.438 22.438 C-1.655 23.301 -1.872 24.165 -2.096 25.056 C-3.161 29.159 -4.283 33.111 -6 37 C-6.66 36.67 -7.32 36.34 -8 36 C-6.99 31.261 -5.903 26.594 -4.562 21.938 C-2.549 14.725 -1.303 7.367 0 0 Z " fill="#E1EAE0" transform="translate(352,259)"/>
<path d="M0 0 C12.6 0.225 24.69 7.234 35 14 C34.67 14.99 34.34 15.98 34 17 C33.406 16.625 32.811 16.25 32.199 15.863 C22.981 10.172 13.708 6.027 3.336 2.895 C1 2 1 2 0 0 Z " fill="#E8EDE7" transform="translate(270,149)"/>
<path d="M0 0 C0.66 0.33 1.32 0.66 2 1 C-4.603 8.594 -18.462 11.008 -28 13 C-30.941 13.105 -30.941 13.105 -33 13 C-31.68 12.67 -30.36 12.34 -29 12 C-29 11.34 -29 10.68 -29 10 C-28.285 9.841 -27.569 9.683 -26.832 9.52 C-18.228 7.505 -9.564 5.004 -1.75 0.785 C-1.173 0.526 -0.595 0.267 0 0 Z " fill="#DFE8DE" transform="translate(287,325)"/>
<path d="M0 0 C10.582 8.547 18.256 19.172 23 32 C22.01 32 21.02 32 20 32 C19.576 31.094 19.152 30.188 18.715 29.254 C14.737 20.926 10.319 13.947 4.227 6.969 C0 2.127 0 2.127 0 0 Z " fill="#E3EDE2" transform="translate(302,191)"/>
<path d="M0 0 C0.33 0.66 0.66 1.32 1 2 C0.316 4.044 -0.45 6.061 -1.25 8.062 C-4.358 16.178 -5.725 24.435 -7 33 C-9.518 29.223 -9.319 27.498 -9 23 C-8.374 20.069 -7.524 17.233 -6.625 14.375 C-6.403 13.638 -6.182 12.9 -5.953 12.141 C-3.581 4.355 -3.581 4.355 -2 1 C-1.34 0.67 -0.68 0.34 0 0 Z " fill="#D9DCD9" transform="translate(148,209)"/>
<path d="M0 0 C0.66 0.33 1.32 0.66 2 1 C-4.491 8.547 -16.658 11.081 -26 13 C-25.67 12.01 -25.34 11.02 -25 10 C-22.48 9.043 -22.48 9.043 -19.188 8.188 C-13.126 6.475 -7.879 4.091 -2.363 1.074 C-1.583 0.72 -0.804 0.365 0 0 Z " fill="#DDE6DC" transform="translate(298,345)"/>
<path d="M0 0 C0.66 0 1.32 0 2 0 C1.091 6.056 -1.958 10.775 -5 16 C-5.378 16.652 -5.755 17.305 -6.145 17.977 C-8.02 21.011 -9.603 22.787 -13 24 C-10.906 19.639 -8.434 15.491 -6.01 11.309 C-3.873 7.598 -1.878 3.851 0 0 Z " fill="#E7EBE6" transform="translate(343,295)"/>
<path d="M0 0 C0 3.904 -1.31 5.008 -3.688 8.062 C-7.487 13.124 -10.402 18.242 -13 24 C-13.66 24 -14.32 24 -15 24 C-13.207 15.037 -7.81 7.009 -1 1 C-0.67 0.67 -0.34 0.34 0 0 Z " fill="#E7EDE6" transform="translate(163,185)"/>
<path d="M0 0 C3.773 2.122 7.48 4.29 11.125 6.625 C13.995 8.439 16.773 9.891 20 11 C19.01 12.485 19.01 12.485 18 14 C15.765 12.781 13.537 11.55 11.312 10.312 C10.687 9.973 10.061 9.633 9.416 9.283 C5.282 6.967 2.203 4.497 -1 1 C-0.67 0.67 -0.34 0.34 0 0 Z " fill="#E4ECE3" transform="translate(193,318)"/>
<path d="M0 0 C1.137 3.41 0.874 3.927 -0.375 7.125 C-1.823 11.124 -2.408 14.719 -2.594 18.957 C-3.11 21.553 -4.311 23 -6 25 C-5.3 8.247 -5.3 8.247 -2 1 C-1.34 0.67 -0.68 0.34 0 0 Z " fill="#D0D5CE" transform="translate(167,224)"/>
<path d="M0 0 C0 3.771 -1.163 5.079 -3.25 8.188 C-5.491 11.597 -7.56 14.94 -9.312 18.625 C-11 22 -11 22 -13 23 C-10.694 14.861 -7.265 4.843 0 0 Z " fill="#ECF2EB" transform="translate(179,202)"/>
<path d="M0 0 C3.518 2.059 6.866 4.264 10.188 6.625 C13.485 8.994 13.485 8.994 17 11 C16.67 11.99 16.34 12.98 16 14 C13.322 12.246 10.66 10.469 8 8.688 C7.237 8.188 6.474 7.688 5.688 7.174 C4.605 6.444 4.605 6.444 3.5 5.699 C2.83 5.254 2.159 4.809 1.469 4.35 C0.984 3.905 0.499 3.459 0 3 C0 2.01 0 1.02 0 0 Z " fill="#EAEFE9" transform="translate(176,334)"/>
<path d="M0 0 C4.101 1.404 6.981 3.371 10.312 6.125 C11.196 6.849 12.079 7.574 12.988 8.32 C13.652 8.875 14.316 9.429 15 10 C14.67 10.99 14.34 11.98 14 13 C13.587 12.625 13.175 12.25 12.75 11.863 C8.438 8.042 3.966 4.915 -1 2 C-0.67 1.34 -0.34 0.68 0 0 Z " fill="#D0E7CE" transform="translate(287,180)"/>
<path d="M0 0 C0.99 0 1.98 0 3 0 C4.197 2.621 5.383 5.246 6.562 7.875 C6.905 8.621 7.247 9.368 7.6 10.137 C8.46 12.065 9.236 14.031 10 16 C9.67 16.66 9.34 17.32 9 18 C5.847 16.423 5.217 13.244 3.938 10.125 C3.669 9.487 3.4 8.849 3.123 8.191 C1.989 5.483 0.929 2.786 0 0 Z " fill="#E6F0E4" transform="translate(338,201)"/>
<path d="M0 0 C-0.33 0.66 -0.66 1.32 -1 2 C-3.512 2.633 -3.512 2.633 -6.688 3.125 C-7.723 3.293 -8.758 3.46 -9.824 3.633 C-12.916 3.99 -15.891 4.065 -19 4 C-16.435 0.769 -14.057 0.362 -10.062 -0.25 C-8.502 -0.505 -8.502 -0.505 -6.91 -0.766 C-4.245 -0.98 -2.506 -0.845 0 0 Z " fill="#CEDACC" transform="translate(273,357)"/>
<path d="M0 0 C0.33 0 0.66 0 1 0 C1.205 1.097 1.41 2.194 1.621 3.324 C1.893 4.779 2.165 6.233 2.438 7.688 C2.64 8.769 2.64 8.769 2.846 9.873 C3.541 13.587 4.248 17.297 5 21 C4.01 21.33 3.02 21.66 2 22 C1.876 20.989 1.752 19.979 1.625 18.938 C1.112 15.036 1.112 15.036 -0.125 11.562 C-1.19 7.225 -0.766 4.368 0 0 Z " fill="#D1D6D0" transform="translate(140,265)"/>
<path d="M0 0 C4.321 0.361 7.935 2.222 11.812 4.062 C12.974 4.61 14.135 5.158 15.332 5.723 C16.212 6.144 17.093 6.566 18 7 C18 7.66 18 8.32 18 9 C15.286 8.364 12.715 7.578 10.109 6.59 C9.4 6.322 8.691 6.055 7.961 5.779 C7.231 5.502 6.502 5.224 5.75 4.938 C5.005 4.656 4.26 4.374 3.492 4.084 C1.661 3.391 -0.17 2.696 -2 2 C-1.34 1.34 -0.68 0.68 0 0 Z " fill="#D8E9D6" transform="translate(269,172)"/>
<path d="M0 0 C4.074 1.61 6.765 4.538 9.75 7.625 C10.257 8.141 10.763 8.656 11.285 9.188 C12.528 10.454 13.765 11.726 15 13 C14.67 13.66 14.34 14.32 14 15 C8.877 10.722 4.007 6.372 0 1 C0 0.67 0 0.34 0 0 Z " fill="#DDE3DC" transform="translate(161,320)"/>
<path d="M0 0 C0.66 0 1.32 0 2 0 C1.858 1.896 1.711 3.792 1.562 5.688 C1.481 6.743 1.4 7.799 1.316 8.887 C1.035 11.651 0.598 14.289 0 17 C-2 15 -2 15 -2.012 12.285 C-1.905 11.222 -1.798 10.158 -1.688 9.062 C-1.588 8.002 -1.489 6.941 -1.387 5.848 C-1 3 -1 3 0 0 Z " fill="#D4E3D2" transform="translate(352,259)"/>
<path d="M0 0 C0.789 0.108 1.578 0.217 2.391 0.328 C8.028 1.21 8.028 1.21 10.688 1.688 C8.688 3.688 8.688 3.688 6.262 3.699 C5.309 3.592 4.356 3.485 3.375 3.375 C2.43 3.276 1.485 3.176 0.512 3.074 C-2.126 2.713 -4.709 2.242 -7.312 1.688 C-4.039 -0.495 -3.646 -0.523 0 0 Z " fill="#D2DDD0" transform="translate(261.3125,146.3125)"/>
<path d="M0 0 C4.62 0.66 9.24 1.32 14 2 C14.33 2.99 14.66 3.98 15 5 C4.442 4.221 4.442 4.221 0 2 C0 1.34 0 0.68 0 0 Z " fill="#CBDFC9" transform="translate(218,356)"/>
<path d="M0 0 C4.798 3.876 9.429 7.925 13 13 C13 13.66 13 14.32 13 15 C9.116 13.705 7.929 11.795 5.375 8.625 C4.578 7.648 3.782 6.671 2.961 5.664 C1 3 1 3 0 0 Z " fill="#EFF3EE" transform="translate(302,191)"/>
<path d="M0 0 C0.66 0.33 1.32 0.66 2 1 C-0.501 3.91 -3.197 5.168 -6.688 6.688 C-7.681 7.124 -8.675 7.561 -9.699 8.012 C-10.458 8.338 -11.218 8.664 -12 9 C-11.84 7.176 -11.84 7.176 -11 5 C-8.566 3.48 -8.566 3.48 -5.562 2.188 C-4.574 1.748 -3.585 1.308 -2.566 0.855 C-1.719 0.573 -0.873 0.291 0 0 Z " fill="#DAE4D8" transform="translate(216,173)"/>
<path d="M0 0 C3.02 1.51 3.405 3.811 4.688 6.875 C5.145 7.945 5.603 9.015 6.074 10.117 C7 13 7 13 6 16 C2.113 11.743 0 5.725 0 0 Z " fill="#E1EDE0" transform="translate(143,285)"/>
<path d="M0 0 C0.66 0 1.32 0 2 0 C1.465 5.348 -0.467 9.358 -3 14 C-3.66 14 -4.32 14 -5 14 C-3.7 9.101 -2.076 4.624 0 0 Z " fill="#E9F1E8" transform="translate(325,280)"/>
<path d="M0 0 C4.81 2.547 8.324 4.99 12 9 C8.234 9 7.229 7.926 4.312 5.625 C3.1 4.685 3.1 4.685 1.863 3.727 C1.248 3.157 0.634 2.587 0 2 C0 1.34 0 0.68 0 0 Z " fill="#EEF2ED" transform="translate(305,164)"/>
<path d="M0 0 C-1.931 1.033 -3.87 2.051 -5.812 3.062 C-6.891 3.631 -7.97 4.199 -9.082 4.785 C-12 6 -12 6 -15 5 C-11.55 1.85 -4.539 -2.269 0 0 Z " fill="#DFEADD" transform="translate(213,152)"/>
<path d="M0 0 C3.417 2.278 3.797 3.384 5.188 7.125 C5.532 8.035 5.876 8.945 6.23 9.883 C6.484 10.581 6.738 11.28 7 12 C6.01 12 5.02 12 4 12 C3.326 10.566 2.661 9.127 2 7.688 C1.629 6.887 1.257 6.086 0.875 5.262 C0 3 0 3 0 0 Z " fill="#E1ECDF" transform="translate(166,281)"/>
<path d="M0 0 C0.66 0.33 1.32 0.66 2 1 C0.212 2.172 -1.581 3.338 -3.375 4.5 C-4.373 5.15 -5.37 5.799 -6.398 6.469 C-9 8 -9 8 -11 8 C-11 7.34 -11 6.68 -11 6 C-9.214 4.97 -7.421 3.951 -5.625 2.938 C-4.627 2.369 -3.63 1.801 -2.602 1.215 C-1.743 0.814 -0.885 0.413 0 0 Z " fill="#E9EEE9" transform="translate(197,157)"/>
<path d="M0 0 C0 0.66 0 1.32 0 2 C-4.266 3.138 -7.565 4 -12 4 C-12 3.34 -12 2.68 -12 2 C-7.823 0.409 -4.468 -0.213 0 0 Z " fill="#D0DACF" transform="translate(225,148)"/>
<path d="M0 0 C3.713 1.444 4.949 3.122 6.75 6.625 C7.178 7.442 7.606 8.26 8.047 9.102 C8.519 10.041 8.519 10.041 9 11 C5.287 9.556 4.051 7.878 2.25 4.375 C1.822 3.558 1.394 2.74 0.953 1.898 C0.639 1.272 0.324 0.645 0 0 Z " fill="#E5ECE4" transform="translate(331,190)"/>
<path d="M0 0 C-1.117 3.35 -1.747 3.793 -4.562 5.688 C-5.203 6.124 -5.844 6.561 -6.504 7.012 C-6.998 7.338 -7.491 7.664 -8 8 C-8.66 7.67 -9.32 7.34 -10 7 C-3.184 0 -3.184 0 0 0 Z " fill="#E0E9DE" transform="translate(204,180)"/>
<path d="M0 0 C-0.33 0.66 -0.66 1.32 -1 2 C-3.504 2.633 -3.504 2.633 -6.562 3.125 C-8.08 3.376 -8.08 3.376 -9.629 3.633 C-10.803 3.815 -10.803 3.815 -12 4 C-9.836 0.754 -9.545 0.558 -6 -0.25 C-4.948 -0.505 -4.948 -0.505 -3.875 -0.766 C-2 -1 -2 -1 0 0 Z " fill="#D9EAD7" transform="translate(229,171)"/>
<path d="M0 0 C1.438 0.115 2.876 0.242 4.312 0.375 C5.513 0.479 5.513 0.479 6.738 0.586 C9 1 9 1 12 3 C11.34 3.66 10.68 4.32 10 5 C5.05 3.02 5.05 3.02 0 1 C0 0.67 0 0.34 0 0 Z " fill="#E1EBDF" transform="translate(270,149)"/>
<path d="M0 0 C0.66 0.33 1.32 0.66 2 1 C-1.126 4.394 -3.565 6.606 -8 8 C-6.883 4.65 -6.253 4.207 -3.438 2.312 C-2.797 1.876 -2.156 1.439 -1.496 0.988 C-0.756 0.499 -0.756 0.499 0 0 Z " fill="#EBEFEA" transform="translate(296,319)"/>
<path d="M0 0 C0 3.654 -0.889 5.06 -3 8 C-5.188 9.312 -5.188 9.312 -7 10 C-2.878 1.439 -2.878 1.439 0 0 Z " fill="#F1F3F1" transform="translate(337,309)"/>
<path d="M0 0 C0.66 0 1.32 0 2 0 C0.891 3.487 -0.263 6.775 -2 10 C-2.66 10 -3.32 10 -4 10 C-2.998 6.207 -2.19 3.285 0 0 Z " fill="#EBF0EA" transform="translate(152,199)"/>
<path d="M0 0 C3.941 1.668 6.789 4.227 10 7 C9.67 7.66 9.34 8.32 9 9 C7.684 7.879 6.372 6.753 5.062 5.625 C4.332 4.999 3.601 4.372 2.848 3.727 C1 2 1 2 0 0 Z " fill="#F0F7EF" transform="translate(183,310)"/>
<path d="M0 0 C1.65 1.65 3.3 3.3 5 5 C4.01 5.33 3.02 5.66 2 6 C1.01 4.35 0.02 2.7 -1 1 C-0.67 0.67 -0.34 0.34 0 0 Z " fill="#DEEADC" transform="translate(328,184)"/>
<path d="M0 0 C-2.495 2.495 -3.673 2.359 -7.125 2.625 C-8.035 2.7 -8.945 2.775 -9.883 2.852 C-10.931 2.925 -10.931 2.925 -12 3 C-10.68 2.67 -9.36 2.34 -8 2 C-8 1.34 -8 0.68 -8 0 C-4.713 -0.8 -3.29 -1.097 0 0 Z " fill="#CFD5CE" transform="translate(266,335)"/>
<path d="M0 0 C1.374 3.818 0.68 7.073 0 11 C-2.429 7.356 -2.162 5.288 -2 1 C-1.34 0.67 -0.68 0.34 0 0 Z " fill="#D1D2D0" transform="translate(141,231)"/>
<path d="M0 0 C-1.251 3.754 -2.565 4.241 -6 6 C-6.66 6 -7.32 6 -8 6 C-8 5.34 -8 4.68 -8 4 C-2.588 0 -2.588 0 0 0 Z " fill="#E7EFE5" transform="translate(308,340)"/>
<path d="M0 0 C-0.33 0.66 -0.66 1.32 -1 2 C-3.066 2.633 -3.066 2.633 -5.562 3.125 C-6.389 3.293 -7.215 3.46 -8.066 3.633 C-8.704 3.754 -9.343 3.875 -10 4 C-7.259 1.091 -4.041 -2.02 0 0 Z " fill="#DBE7D9" transform="translate(275,332)"/>
<path d="M0 0 C0.99 0 1.98 0 3 0 C4.068 1.965 5.066 3.969 6 6 C5.67 6.66 5.34 7.32 5 8 C2.276 5.647 1.186 3.375 0 0 Z " fill="#DFF0DD" transform="translate(338,201)"/>
<path d="M0 0 C1.65 0.99 3.3 1.98 5 3 C4.67 3.99 4.34 4.98 4 6 C2.624 4.71 1.292 3.373 0 2 C0 1.34 0 0.68 0 0 Z " fill="#C5E2C2" transform="translate(297,187)"/>
<path d="M0 0 C0 0.66 0 1.32 0 2 C-2.709 3.354 -5.009 3.065 -8 3 C-5.534 -0.115 -3.892 -0.316 0 0 Z " fill="#D1DBD0" transform="translate(236,169)"/>
<path d="M0 0 C1.65 0.99 3.3 1.98 5 3 C4.67 3.99 4.34 4.98 4 6 C2.35 4.35 0.7 2.7 -1 1 C-0.67 0.67 -0.34 0.34 0 0 Z " fill="#D5E7D3" transform="translate(176,334)"/>
<path d="M0 0 C3.367 1.393 4.986 2.979 7 6 C5.188 5.812 5.188 5.812 3 5 C1.25 2.438 1.25 2.438 0 0 Z " fill="#E5EDE4" transform="translate(178,304)"/>
<path d="M0 0 C1 2 1 2 0.25 4.562 C-1 7 -1 7 -4 8 C-3.401 5.648 -2.731 3.314 -2 1 C-1.34 0.67 -0.68 0.34 0 0 Z " fill="#D6E6D4" transform="translate(148,209)"/>
<path d="M0 0 C0 3 0 3 -2 5.188 C-2.66 5.786 -3.32 6.384 -4 7 C-4 4 -4 4 -2 1.812 C-1.34 1.214 -0.68 0.616 0 0 Z " fill="#EDF2EC" transform="translate(179,202)"/>
<path d="M0 0 C-1.133 3.399 -2.125 4.053 -5 6 C-5.66 5.67 -6.32 5.34 -7 5 C-2.25 0 -2.25 0 0 0 Z " fill="#E5EAE4" transform="translate(185,165)"/>
<path d="M0 0 C2.763 0.523 5.326 1.109 8 2 C8 2.66 8 3.32 8 4 C2.25 3.125 2.25 3.125 0 2 C0 1.34 0 0.68 0 0 Z " fill="#EEF5ED" transform="translate(281,152)"/>
<path d="M0 0 C2.954 1.372 5.44 2.989 8 5 C7.67 5.66 7.34 6.32 7 7 C5.83 6.024 4.664 5.044 3.5 4.062 C2.85 3.517 2.201 2.972 1.531 2.41 C1.026 1.945 0.521 1.479 0 1 C0 0.67 0 0.34 0 0 Z " fill="#F3F7F2" transform="translate(168,328)"/>
<path d="M0 0 C0.33 0.66 0.66 1.32 1 2 C0.25 4.062 0.25 4.062 -1 6 C-1.99 6.33 -2.98 6.66 -4 7 C-3.398 4.98 -2.727 2.979 -2 1 C-1.34 0.67 -0.68 0.34 0 0 Z " fill="#E8EEE7" transform="translate(341,302)"/>
<path d="M0 0 C0.33 0.66 0.66 1.32 1 2 C0.25 4.062 0.25 4.062 -1 6 C-1.99 6.33 -2.98 6.66 -4 7 C-3.398 4.98 -2.727 2.979 -2 1 C-1.34 0.67 -0.68 0.34 0 0 Z " fill="#E6EFE4" transform="translate(174,209)"/>
<path d="M0 0 C1.98 0.66 3.96 1.32 6 2 C5.67 2.99 5.34 3.98 5 5 C3.02 4.01 1.04 3.02 -1 2 C-0.67 1.34 -0.34 0.68 0 0 Z " fill="#DCE5DB" transform="translate(289,155)"/>
<path d="M0 0 C0.931 2.606 1.149 3.642 0.062 6.25 C-0.463 7.116 -0.463 7.116 -1 8 C-1.33 8 -1.66 8 -2 8 C-1.125 1.125 -1.125 1.125 0 0 Z " fill="#E4E5E4" transform="translate(164,232)"/>
<path d="M0 0 C4.75 0.875 4.75 0.875 7 2 C7 2.66 7 3.32 7 4 C3.73 3.436 2.174 2.5 0 0 Z " fill="#EAF3E8" transform="translate(280,177)"/>
<path d="M0 0 C0.66 0.33 1.32 0.66 2 1 C1.67 1.66 1.34 2.32 1 3 C-2.062 3.625 -2.062 3.625 -5 4 C-3 1 -3 1 0 0 Z " fill="#E2ECE1" transform="translate(279,329)"/>
<path d="M0 0 C2.475 0.99 2.475 0.99 5 2 C4.67 2.99 4.34 3.98 4 5 C2.35 3.68 0.7 2.36 -1 1 C-0.67 0.67 -0.34 0.34 0 0 Z " fill="#D5E5D2" transform="translate(188,343)"/>
<path d="M0 0 C1.675 0.286 3.344 0.618 5 1 C4.01 2.485 4.01 2.485 3 4 C1.68 3.01 0.36 2.02 -1 1 C-0.67 0.67 -0.34 0.34 0 0 Z " fill="#D0DDCE" transform="translate(208,328)"/>
<path d="M0 0 C1.32 0.66 2.64 1.32 4 2 C3.67 2.99 3.34 3.98 3 5 C1.68 3.68 0.36 2.36 -1 1 C-0.67 0.67 -0.34 0.34 0 0 Z " fill="#DFE4DE" transform="translate(193,318)"/>
<path d="M0 0 C0.33 0.66 0.66 1.32 1 2 C-0.32 3.32 -1.64 4.64 -3 6 C-3 3 -3 3 -1.5 1.312 C-0.757 0.663 -0.757 0.663 0 0 Z " fill="#E2EAE0" transform="translate(320,294)"/>
<path d="M0 0 C3 1 3 1 4.188 3.062 C4.456 3.702 4.724 4.341 5 5 C3.68 4.67 2.36 4.34 1 4 C0.67 2.68 0.34 1.36 0 0 Z " fill="#E7EDE7" transform="translate(171,293)"/>
<path d="M0 0 C0 3 0 3 -1.5 4.688 C-1.995 5.121 -2.49 5.554 -3 6 C-3.33 5.34 -3.66 4.68 -4 4 C-2.68 2.68 -1.36 1.36 0 0 Z " fill="#DEE9DC" transform="translate(157,193)"/>
<path d="M0 0 C3 1 3 1 4.188 3.062 C4.456 3.702 4.724 4.341 5 5 C4.01 5 3.02 5 2 5 C1.34 3.35 0.68 1.7 0 0 Z " fill="#DFE9DE" transform="translate(314,206)"/>
<path d="M0 0 C0.66 0.33 1.32 0.66 2 1 C0.515 2.485 0.515 2.485 -1 4 C-1.99 3.67 -2.98 3.34 -4 3 C-2.68 2.01 -1.36 1.02 0 0 Z " fill="#D8E6D6" transform="translate(216,173)"/>
<path d="M0 0 C0.66 0.33 1.32 0.66 2 1 C1.01 2.32 0.02 3.64 -1 5 C-1.66 4.67 -2.32 4.34 -3 4 C-2.01 2.68 -1.02 1.36 0 0 Z " fill="#D8E5D6" transform="translate(311,336)"/>
<path d="M0 0 C2.475 0.99 2.475 0.99 5 2 C5 2.66 5 3.32 5 4 C3.062 3.688 3.062 3.688 1 3 C0.67 2.01 0.34 1.02 0 0 Z " fill="#F3F5F3" transform="translate(203,325)"/>
<path d="M0 0 C1.938 0.812 1.938 0.812 4 2 C4.33 2.99 4.66 3.98 5 5 C3.062 4.188 3.062 4.188 1 3 C0.67 2.01 0.34 1.02 0 0 Z " fill="#F6F9F5" transform="translate(335,196)"/>
<path d="M0 0 C2.125 0.375 2.125 0.375 4 1 C3.01 1.66 2.02 2.32 1 3 C0.01 2.67 -0.98 2.34 -2 2 C-1.34 1.34 -0.68 0.68 0 0 Z " fill="#EBF1EA" transform="translate(219,172)"/>
<path d="M0 0 C2.475 0.495 2.475 0.495 5 1 C5 1.66 5 2.32 5 3 C3.062 2.625 3.062 2.625 1 2 C0.67 1.34 0.34 0.68 0 0 Z " fill="#E4F2E2" transform="translate(213,355)"/>
<path d="M0 0 C3.875 1.75 3.875 1.75 5 4 C3.062 3.688 3.062 3.688 1 3 C0.67 2.01 0.34 1.02 0 0 Z " fill="#EAF1E9" transform="translate(158,316)"/>
<path d="M0 0 C0.99 0.33 1.98 0.66 3 1 C3.33 1.99 3.66 2.98 4 4 C3.01 4 2.02 4 1 4 C0.67 2.68 0.34 1.36 0 0 Z " fill="#E3ECE2" transform="translate(169,289)"/>
<path d="M0 0 C1.98 0.99 1.98 0.99 4 2 C4 2.66 4 3.32 4 4 C2.68 3.34 1.36 2.68 0 2 C0 1.34 0 0.68 0 0 Z " fill="#E1E7E0" transform="translate(293,184)"/>
<path d="M0 0 C0 0.66 0 1.32 0 2 C-1.32 2.33 -2.64 2.66 -4 3 C-4.33 2.34 -4.66 1.68 -5 1 C-3 0 -3 0 0 0 Z " fill="#D4E4D2" transform="translate(203,155)"/>
<path d="M0 0 C1.32 0.33 2.64 0.66 4 1 C3.67 1.66 3.34 2.32 3 3 C2.01 2.67 1.02 2.34 0 2 C0 1.34 0 0.68 0 0 Z " fill="#D7E4D5" transform="translate(222,357)"/>
<path d="M0 0 C0.33 0.99 0.66 1.98 1 3 C-0.485 3.99 -0.485 3.99 -2 5 C-1.125 1.125 -1.125 1.125 0 0 Z " fill="#E4EBE3" transform="translate(349,281)"/>
<path d="M0 0 C1.98 0.99 1.98 0.99 4 2 C4 2.66 4 3.32 4 4 C3.01 3.67 2.02 3.34 1 3 C0.67 2.01 0.34 1.02 0 0 Z " fill="#E8F0E7" transform="translate(311,202)"/>
<path d="M0 0 C0.99 0 1.98 0 3 0 C3.33 0.99 3.66 1.98 4 3 C2.68 2.67 1.36 2.34 0 2 C0 1.34 0 0.68 0 0 Z " fill="#D1E4CF" transform="translate(338,201)"/>
<path d="M0 0 C0.99 0.33 1.98 0.66 3 1 C2.67 1.99 2.34 2.98 2 4 C1.34 2.68 0.68 1.36 0 0 Z " fill="#D5E5D3" transform="translate(290,182)"/>
</svg>